<svg width="1002" height="113" xmlns="http://www.w3.org/2000/svg" xmlns:xlink="http://www.w3.org/1999/xlink" overflow="hidden"><defs><clipPath id="clip0"><path d="M0 0 1002 0 1002 113 0 113Z" fill-rule="evenodd" clip-rule="evenodd"/></clipPath></defs><g clip-path="url(#clip0)"><rect x="0" y="0" width="998.554" height="113" fill="#FFFFFF" transform="scale(1.00345 1)"/><path d="M0 0 99.8555 113" stroke="#BFBFBF" stroke-linecap="round" stroke-linejoin="round" stroke-miterlimit="10" fill="none" fill-rule="evenodd" transform="matrix(1.00345 0 -0 1 770.5 0.500047)"/><path d="M0 0-390.147-52.3409" stroke="#D9D9D9" stroke-linecap="round" stroke-linejoin="round" stroke-miterlimit="10" fill="none" fill-rule="evenodd" transform="matrix(1.00345 8.77244e-08 8.74228e-08 -1 1001.99 61.5)"/><path d="M167.426 0 246.151 0 246.151 113 0 113 167.426 0Z" fill="#90C226" fill-rule="evenodd" fill-opacity="0.301961" transform="matrix(1.00345 0 -0 1 755 0)"/><path d="M0 0 212.268 0 212.268 113 99.1784 113 0 0Z" fill="#90C226" fill-rule="evenodd" fill-opacity="0.2" transform="matrix(1.00345 0 -0 1 789 0)"/><path d="M0 63 267.078 0 267.078 63Z" fill="#54A021" fill-rule="evenodd" fill-opacity="0.721569" transform="matrix(1.00345 0 -0 1 734 50)"/><path d="M0 0 234.192 0 234.192 113 202.72 113 0 0Z" fill="#3F7819" fill-rule="evenodd" fill-opacity="0.701961" transform="matrix(1.00345 0 -0 1 767 0)"/><path d="M83.498 0 105.636 0 105.636 113 0 113 83.498 0Z" fill="#C0E474" fill-rule="evenodd" fill-opacity="0.701961" transform="matrix(1.00345 0 -0 1 896 0)"/><path d="M0 0 102.646 0 102.646 113 91.1115 113 0 0Z" fill="#90C226" fill-rule="evenodd" fill-opacity="0.65098" transform="matrix(1.00345 0 -0 1 899 0)"/><path d="M0 54 149.484 0 149.484 54Z" fill="#90C226" fill-rule="evenodd" fill-opacity="0.8" transform="matrix(1.00345 0 -0 1 852 59)"/><path d="M0 93 68.7627 0 68.7627 93Z" fill="#90C226" fill-rule="evenodd" fill-opacity="0.85098" transform="matrix(-1.00345 -8.77244e-08 8.74228e-08 -1 69 93)"/></g></svg>