<svg width="2050" height="2050" xmlns="http://www.w3.org/2000/svg">

 <title/>
 <g>
  <title>Layer 1</title>
  <g id="Layer_3" data-name="Layer 3">
   <path id="svg_2" fill="#ff4f4f" d="m1594.2,453.19905c-47.6,43.4 -109.5,87.4 -175.5,111.7a607.9,607.9 0 0 0 -787.4,0c-66,-24.3 -127.9,-68.3 -175.5,-111.7c-63,-57.4 -68.5,165.6 45.7,265.6a605.3,605.3 0 0 0 -84.6,309.5c0,335.8 272.3,608.1 608.1,608.1s608.1,-272.3 608.1,-608.1a605.3,605.3 0 0 0 -84.6,-309.5c114.2,-100 108.7,-323 45.7,-265.6z" class="cls-2"/>
   <ellipse transform="rotate(-87.5 -249.1 1713.7)" id="svg_3" fill="#00305f" ry="60.2" rx="94.9" cy="2722.599" cx="544.1" class="cls-3"/>
   <circle id="svg_4" fill="#fff" r="16.6" cy="966.39905" cx="826.5" class="cls-1"/>
   <path id="svg_5" fill="#00305f" d="m881.2,956.29905a30.1,30.1 0 0 1 -10.9,-2.1l-195.4,-76.3a30,30 0 1 1 21.8,-55.8l195.4,76.3a30,30 0 0 1 -10.9,57.9z" class="cls-3"/>
   <ellipse transform="rotate(-2.5 -42.5 11.399)" id="svg_6" fill="#00305f" ry="94.9" rx="60.2" cy="1020.29905" cx="1214.3" class="cls-3"/>
   <circle id="svg_7" fill="#fff" r="16.6" cy="966.39905" cx="1223.5" class="cls-1"/>
   <path id="svg_8" fill="#00305f" d="m1168.8,956.29905a30,30 0 0 1 -10.9,-57.9l195.4,-76.3a30,30 0 1 1 21.8,55.8l-195.4,76.3a30.1,30.1 0 0 1 -10.9,2.1z" class="cls-3"/>
   <path id="svg_9" fill="#00305f" d="m1039.1,1393.39905l-28.2,0c-164.4,0 -297.6,-133.3 -297.6,-297.7l0,0a1299,1299 0 0 0 623.4,0l0,0c0,164.4 -133.2,297.7 -297.6,297.7z" class="cls-3"/>
   <path id="svg_10" fill="#e33b3b" d="m1025,1472.69905c-275.9,0 -511.8,-171.2 -607.3,-413.1c16.3,321.3 282,576.8 607.3,576.8s591,-255.5 607.3,-576.8c-95.5,241.9 -331.4,413.1 -607.3,413.1z" class="cls-4"/>
   <path id="svg_11" fill="#e33b3b" d="m501.5,718.79905c-7.6,12.8 -14.8,26 -21.4,39.4c35.2,9.8 76.2,14.8 76.2,14.8l-54.8,-54.2z" class="cls-4"/>
   <path id="svg_12" fill="#e33b3b" d="m1548.5,718.79905c7.6,12.8 14.8,26 21.4,39.4c-35.2,9.8 -76.2,14.8 -76.2,14.8l54.8,-54.2z" class="cls-4"/>
  </g>
 </g>
</svg>