<svg width="2050" height="2050" xmlns="http://www.w3.org/2000/svg">

 <title/>
 <g>
  <title>Layer 1</title>
  <g id="Layer_3" data-name="Layer 3">
   <circle id="svg_2" fill="#ffc500" r="613.7" cy="1025" cx="1025" class="cls-2"/>
   <path id="svg_3" fill="#ff9f1e" d="m1068.5,1551.8c-339,0 -613.7,-274.8 -613.7,-613.7a613.5,613.5 0 0 1 44.4,-229.8a610.7,610.7 0 0 0 -87.9,316.7c0,338.9 274.8,613.7 613.7,613.7c257.7,0 478.3,-158.8 569.2,-383.9c-107.4,178 -302.7,297 -525.7,297z" class="cls-3"/>
   <path id="svg_4" fill="#ffe059" d="m1025,411.3a610.4,610.4 0 0 0 -365.1,120.4a706.9,706.9 0 0 1 453.2,-18.9a27.8,27.8 0 0 0 -3.3,5.1c-18.2,33.9 18.9,89.1 82.7,123.3s130.4,34.6 148.6,0.8a38.6,38.6 0 0 0 3.7,-10.5c165.2,128 271.9,328.1 272.9,553.1a613.3,613.3 0 0 0 21,-159.6c0,-338.9 -274.8,-613.7 -613.7,-613.7z" class="cls-4"/>
   <ellipse id="svg_5" transform="rotate(-79 396.9 1879.5)" fill="#ffe059" ry="52.8" rx="30.8" cy="2578.3" cx="1736.29999" class="cls-4"/>
   <ellipse id="svg_6" transform="rotate(-60 -4.90002 1429)" fill="#ffe059" ry="25" rx="17.2" cy="2147.7" cx="1230.2" class="cls-4"/>
   <path id="svg_7" fill="#ff4f4f" d="m933.6,845.6a82.7,82.7 0 0 0 -117,0a82.7,82.7 0 0 0 -117.7,0.8c-31.7,32.5 -30.5,84.9 1.7,117l90.9,91a35.2,35.2 0 0 0 49.6,0l85.8,-85.9a74,74 0 0 0 6.7,-6a82.6,82.6 0 0 0 0,-116.9z" class="cls-5"/>
   <path id="svg_8" fill="#ff4f4f" d="m1116.4,845.6a82.7,82.7 0 0 1 117,0a82.7,82.7 0 0 1 117.7,0.8c31.7,32.5 30.5,84.9 -1.7,117l-90.9,91a35.2,35.2 0 0 1 -49.6,0l-85.8,-85.9a74,74 0 0 1 -6.7,-6a82.6,82.6 0 0 1 0,-116.9z" class="cls-5"/>
   <circle id="svg_9" fill="#fff" r="21.4" cy="878.4" cx="892.2" class="cls-1"/>
   <circle id="svg_10" fill="#fff" r="21.4" cy="878.4" cx="1319.1" class="cls-1"/>
   <path id="svg_11" fill="#00305f" d="m1022.8,1336.3a361.1,361.1 0 0 1 -159.7,-37.2c-48.5,-23.6 -92.1,-57.4 -129.5,-100.5a30,30 0 0 1 45.3,-39.3c65.7,75.5 152.3,117 243.9,117c47.2,0 92.9,-10.9 136,-32.4s79.7,-51.1 112,-89.5a30,30 0 0 1 45.9,38.6c-37.6,44.7 -81.7,79.9 -131.1,104.5a360.5,360.5 0 0 1 -162.8,38.8z" class="cls-6"/>
  </g>
 </g>
</svg>