<svg width="2050" height="2050" xmlns="http://www.w3.org/2000/svg">

 <title/>
 <g>
  <title>Layer 1</title>
  <g id="Layer_3" data-name="Layer 3">
   <circle id="svg_3" fill="#ffc500" r="613.7" cy="1025" cx="1025" class="cls-2"/>
   <path id="svg_4" fill="#ff9f1e" d="m1068.5,1551.8c-339,0 -613.7,-274.8 -613.7,-613.7a613.5,613.5 0 0 1 44.4,-229.8a610.7,610.7 0 0 0 -87.9,316.7c0,338.9 274.8,613.7 613.7,613.7c257.7,0 478.3,-158.8 569.2,-383.9c-107.4,178 -302.7,297 -525.7,297z" class="cls-3"/>
   <path id="svg_5" fill="#ffe059" d="m1025,411.3a610.4,610.4 0 0 0 -365.1,120.4a706.9,706.9 0 0 1 453.2,-18.9a27.8,27.8 0 0 0 -3.3,5.1c-18.2,33.9 18.9,89.1 82.7,123.3s130.4,34.6 148.6,0.8a38.6,38.6 0 0 0 3.7,-10.5c165.2,128 271.9,328.1 272.9,553.1a613.3,613.3 0 0 0 21,-159.6c0,-338.9 -274.8,-613.7 -613.7,-613.7z" class="cls-4"/>
   <ellipse id="svg_6" transform="rotate(-79 396.9 1879.5)" fill="#ffe059" ry="52.8" rx="30.8" cy="2578.3" cx="1736.29999" class="cls-4"/>
   <ellipse id="svg_7" transform="rotate(-60 -4.90002 1429)" fill="#ffe059" ry="25" rx="17.2" cy="2147.7" cx="1230.2" class="cls-4"/>
   <ellipse id="svg_8" fill="#00305f" transform="matrix(0.04, -1, 1, 0.04, -191.12, 1702.11)" ry="60.2" rx="94.9" cy="950.9" cx="793.2" class="cls-5"/>
   <circle id="svg_9" fill="#fff" r="16.6" cy="952.3" cx="826.5" class="cls-1"/>
   <ellipse id="svg_10" transform="rotate(-2.5 -40 55.4)" fill="#00305f" ry="94.9" rx="60.2" cy="1006.3" cx="1216.8" class="cls-5"/>
   <circle id="svg_11" fill="#fff" r="16.6" cy="952.3" cx="1223.5" class="cls-1"/>
   <path id="svg_12" fill="#00305f" d="m1135,1295.5a29.9,29.9 0 0 1 -12.6,-2.8c-42.5,-19.6 -85.4,-29.6 -127.5,-29.6s-85,10 -127.5,29.6a30,30 0 0 1 -25.2,-54.5c101.3,-46.7 204.1,-46.7 305.4,0a30.1,30.1 0 0 1 -12.6,57.3z" class="cls-5"/>
   <path id="svg_13" fill="#00305f" d="m832.8,1369.3a29.6,29.6 0 0 1 -19.4,-7.1a30,30 0 0 1 -3.4,-42.3a67.7,67.7 0 0 0 -10.6,-97.5a30,30 0 1 1 36.4,-47.6a128.4,128.4 0 0 1 39.5,50.2a127.9,127.9 0 0 1 -19.6,133.8a30.1,30.1 0 0 1 -22.9,10.5z" class="cls-5"/>
  </g>
 </g>
</svg>