<svg width="524.28442" height="758.92546" xmlns="http://www.w3.org/2000/svg" data-name="Layer 1">
 <title>things_to_say</title>

 <g>
  <title>Layer 1</title>
  <path id="svg_5" fill="#f2f2f2" d="m106.58576,730.20822l-0.74682,-0.02993c1.74166,-43.31172 10.81261,-71.14 18.11542,-86.85779c7.92918,-17.06673 15.57,-23.9757 15.64629,-24.04359l0.49678,0.55865c-0.07519,0.06716 -7.62695,6.90751 -15.49261,23.85872c-7.26249,15.65139 -16.28379,43.36538 -18.01906,86.51394z"/>
  <path id="svg_6" fill="#f2f2f2" d="m186.67036,730.29765l-0.71761,-0.20879c8.64132,-29.66023 28.99043,-48.38686 29.19521,-48.57266l0.50225,0.55336a115.174,115.174 0 0 0 -28.97985,48.22809z"/>
  <path id="svg_7" fill="#f2f2f2" d="m34.53564,730.24473l-0.74061,-0.10293a81.41669,81.41669 0 0 0 -7.32307,-47.58822a65.52575,65.52575 0 0 0 -11.55741,-16.8647l0.51722,-0.53949a66.34586,66.34586 0 0 1 11.71035,17.07313a82.16276,82.16276 0 0 1 7.39352,48.02221z"/>
  <path id="svg_12" fill="#ffb9b9" d="m24.53244,335.42043l-5.01857,83.64352s-16.72871,46.84038 5.01861,46.84038s8.36435,-50.18612 8.36435,-50.18612l20.07445,-81.97065l-28.43884,1.67287z"/>
  <path id="svg_13" fill="#ffb9b9" d="m186.80087,325.3832l5.01861,83.64353s16.72871,46.84037 -5.01861,46.84037s-8.36435,-50.18611 -8.36435,-50.18611l-20.07444,-81.97066l28.43879,1.67287z"/>
  <path id="svg_14" fill="#2f2e41" d="m86.42865,680.03173l3.34574,41.82177s-13.383,33.45741 8.36435,36.80315q0.3262,0.05019 0.64592,0.09538a17.25521,17.25521 0 0 0 19.33784,-20.1261l-3.255,-18.4453s1.67287,-33.45741 -8.36436,-40.1489s-20.07449,0 -20.07449,0z"/>
  <path id="svg_15" fill="#2f2e41" d="m118.21319,643.2286s-3.34574,10.03723 -1.67287,20.07445s3.34574,38.476 3.34574,38.476s0,30.11167 11.71009,30.11167c4.18218,0 7.72423,-3.6274 10.54994,-8.2912a42.45108,42.45108 0 0 0 4.30586,-33.14877l-6.49145,-23.802l0,-18.40154l-21.74731,-5.01861z"/>
  <path id="svg_16" fill="#2f2e41" d="m56.31698,337.0933s-36.80311,48.51324 -16.72871,120.44667s21.74732,92.00788 21.74732,92.00788l11.71009,137.17539s20.07445,6.69148 36.80316,-3.34575l-5.01862,-132.15676l0,-80.29779l10.03723,88.66214l0,88.66213s23.42018,23.42019 40.14889,1.67287l3.34574,-98.69936s10.03722,-137.17538 3.34574,-150.55834s-21.74732,-60.22334 -21.74732,-60.22334l-83.64352,-3.34574z"/>
  <path id="svg_17" fill="#2f2e41" d="m89.63235,111.37741s-17.01277,-6.076 -27.94956,18.228s-27.94956,51.03832 -27.94956,51.03832l9.72158,2.43039s2.4304,-17.01277 8.50639,-19.44317l-2.43039,21.87357s72.9119,25.51917 105.72226,-2.4304l-1.2152,-8.50639s4.86079,1.2152 4.86079,8.50639l3.6456,-3.64559s-3.6456,-7.29119 -14.58238,-17.01278c-7.17843,-6.38082 -9.64525,-18.52027 -10.493,-26.11a31.5963,31.5963 0 0 0 -7.27432,-17.2064c-7.26802,-8.42331 -20.51143,-17.37602 -40.56221,-7.72194z"/>
  <circle id="svg_18" fill="#ffb9b9" r="31.78454" cy="159.76902" cx="98.13874"/>
  <path id="svg_19" fill="#ffb9b9" d="m89.77439,179.84347l-10.03722,40.14889l30.1117,86.98927l23.42015,-92.0079s-21.74731,-15.05584 -16.7287,-35.13028l-26.76593,0.00002z"/>
  <path id="svg_20" fill="#cfcce0" d="m171.74504,409.02673s-48.51324,18.40157 -58.55046,-10.03722s-8.36436,-50.18612 -8.36436,-50.18612s-15.05583,58.55047 -40.14889,58.55047s-38.476,-8.36435 -38.476,-8.36435s18.40157,-58.55047 35.13028,-68.5877c0,0 0.08362,-0.20073 0.23423,-0.56882c0.9368,-2.34195 4.24905,-11.62647 1.92374,-19.79008a16.98268,16.98268 0 0 0 -2.158,-4.73415c-6.69148,-10.03723 -13.383,-13.383 -11.71009,-38.476l-13.383,-46.84037l46.15458,-10.63946l24.106,75.88138l21.94806,-74.29224l39.94815,5.70455s3.34574,60.22334 -13.383,81.97065a36.11117,36.11117 0 0 0 -5.88854,11.42564c-2.91078,9.23427 -2.22484,18.95365 -0.65234,26.71579l0.01664,0a73.882,73.882 0 0 0 4.85137,15.39043l18.40163,56.8776z"/>
  <path id="svg_21" fill="#cfcce0" d="m158.36208,218.31949l10.03722,-1.67287s4.18218,-0.83644 11.7101,5.01861c9.61327,7.477 10.03722,108.73658 10.03722,108.73658l-31.78454,1.67292l0,-113.75524z"/>
  <path id="svg_22" fill="#cfcce0" d="m44.60687,223.3381l-8.36435,-3.34574s-3.34574,-1.67287 -5.01861,8.36435s-10.03722,113.7552 -10.03722,113.7552l35.13028,-1.67287l0,-75.27918l-11.7101,-41.82176z"/>
  <path id="svg_23" fill="#2f2e41" d="m61.37504,164.39636s9.72159,-13.36719 18.228,-15.79758s9.72159,-14.58238 9.72159,-14.58238s21.87357,24.304 35.24075,25.51916s1.2152,-29.16476 1.2152,-29.16476l-24.304,-6.076l-23.08877,2.4304l-18.228,12.152l1.21523,25.51916z"/>
  <circle id="svg_24" fill="#2f2e41" r="10.03722" cy="319.52816" cx="107.33953"/>
  <path id="svg_25" fill="#a9a5d8" d="m279.90164,177.09506a108.30016,108.30016 0 1 1 38.65073,51.564a35.03209,35.03209 0 1 1 -38.65073,-51.564z"/>
  <circle id="svg_26" fill="#cfcce0" r="12.53301" cy="136.40833" cx="341.23086"/>
  <circle id="svg_27" fill="#cfcce0" r="12.53301" cy="136.40833" cx="383.99054"/>
  <circle id="svg_28" fill="#cfcce0" r="12.53301" cy="136.40833" cx="426.75021"/>
  <path id="svg_29" fill="#cfcce0" d="m269.18834,224.31799a37.59684,37.59684 0 0 1 -0.65818,-72.66063a114.13982,114.13982 0 1 1 41.98142,56.0034a37.71467,37.71467 0 0 1 -41.32324,16.65723zm135.32673,-218.78326a112.34236,112.34236 0 0 0 -133.73862,146.48l0.37169,1.043l-1.07492,0.26419a35.59634,35.59634 0 1 0 39.27076,52.39359l0.55368,-0.95993l0.89812,0.64924a112.34053,112.34053 0 1 0 93.71929,-199.87009z"/>
 </g>
</svg>