<svg width="563.97296" height="722.57302" xmlns="http://www.w3.org/2000/svg" data-name="Layer 1">

 <g>
  <title>Layer 1</title>
  <path fill="#3f3d56" d="m367.01694,170.71016l-3.9,0l0,-106.977a61.915,61.915 0 0 0 -61.915,-61.915l-226.65,0a61.915,61.915 0 0 0 -61.916,61.914l0,586.884a61.915,61.915 0 0 0 61.915,61.915l226.648,0a61.915,61.915 0 0 0 61.915,-61.915l0,-403.758l3.9,0l0.003,-76.148z" data-name="Path 968" id="a7e0d23c-0c47-41f1-93b9-87dfccd4c0f5"/>
  <path fill="#fff" d="m350.41697,59.58618l0,595.175a46.959,46.959 0 0 1 -46.942,46.952l-231.3,0a46.966,46.966 0 0 1 -46.973,-46.952l0,-595.175a46.965,46.965 0 0 1 46.971,-46.951l28.058,0a22.329,22.329 0 0 0 20.656,30.74l131.868,0a22.329,22.329 0 0 0 20.656,-30.74l30.055,0a46.959,46.959 0 0 1 46.951,46.942l0,0.009z" data-name="Path 969" id="a1ad11fc-8226-4675-bbe0-e36020d9de96"/>
  <path fill="#e6e6e6" d="m293.08294,402.41416l-205.537,0a3.81,3.81 0 0 1 -3.806,-3.806l0,-50.98398a3.811,3.811 0 0 1 3.806,-3.806l205.537,0a3.811,3.811 0 0 1 3.806,3.806l0,50.985a3.811,3.811 0 0 1 -3.806,3.806l0,-0.00102zm-205.537,-57.074a2.286,2.286 0 0 0 -2.284,2.284l0,50.985a2.286,2.286 0 0 0 2.284,2.284l205.537,0a2.286,2.286 0 0 0 2.284,-2.284l0,-50.985a2.286,2.286 0 0 0 -2.284,-2.284l-205.537,0z" data-name="Path 39" id="a71e44ec-7616-4081-86af-b6db32cd39f3"/>
  <path fill="#e6e6e6" d="m151.11094,362.17917a2.66449,2.66449 0 0 0 0,5.329l125.605,0a2.665,2.665 0 0 0 0.2041,-5.32611q-0.0585,-0.00221 -0.11712,-0.0019l-125.692,0l0.00002,-0.00099z" data-name="Path 40" id="a3f57aef-fb20-4553-8f82-b751eb5ec42c"/>
  <path fill="#e6e6e6" d="m151.11094,378.16315a2.66449,2.66449 0 0 0 0,5.329l125.605,0a2.665,2.665 0 0 0 0.2041,-5.32611q-0.0585,-0.00219 -0.11712,-0.00189l-125.692,0l0.00002,-0.001z" data-name="Path 41" id="a617e1da-1a45-4bf0-a146-8b20186fa5b6"/>
  <path fill="#e6e6e6" d="m293.08294,487.39416l-205.537,0a3.81,3.81 0 0 1 -3.806,-3.806l0,-50.98398a3.811,3.811 0 0 1 3.806,-3.806l205.537,0a3.811,3.811 0 0 1 3.806,3.806l0,50.985a3.811,3.811 0 0 1 -3.806,3.80498zm-205.537,-57.074a2.286,2.286 0 0 0 -2.284,2.284l0,50.985a2.286,2.286 0 0 0 2.284,2.284l205.537,0a2.286,2.286 0 0 0 2.284,-2.284l0,-50.985a2.286,2.286 0 0 0 -2.284,-2.284l-205.537,0z" data-name="Path 42" id="f83fafa3-5270-49ac-8952-eedc3d6c92ed"/>
  <path fill="#e6e6e6" d="m151.11094,447.43516a2.66449,2.66449 0 0 0 0,5.329l125.605,0a2.665,2.665 0 0 0 0.087,-5.328l-125.692,0l0,-0.001z" data-name="Path 43" id="b1e095e5-1d51-47f4-b1e9-85a21efab4ec"/>
  <path fill="#e6e6e6" d="m151.11094,463.42319a2.66449,2.66449 0 0 0 0,5.329l125.605,0a2.665,2.665 0 0 0 0.087,-5.328l-125.692,0l0,-0.001z" data-name="Path 44" id="e7ccabbb-2f45-40c9-adc9-a92013dc0f4d"/>
  <path fill="#e6e6e6" d="m293.08294,572.65217l-205.537,0a3.81,3.81 0 0 1 -3.806,-3.806l0,-50.98398a3.811,3.811 0 0 1 3.806,-3.806l205.537,0a3.811,3.811 0 0 1 3.806,3.806l0,50.985a3.811,3.811 0 0 1 -3.806,3.806l0,-0.00102zm-205.537,-57.074a2.286,2.286 0 0 0 -2.284,2.284l0,50.985a2.286,2.286 0 0 0 2.284,2.284l205.537,0a2.286,2.286 0 0 0 2.284,-2.284l0,-50.985a2.286,2.286 0 0 0 -2.284,-2.284l-205.537,0z" data-name="Path 39-2" id="ec532991-8ec8-4eba-a86f-87c70c278f41"/>
  <path fill="#e6e6e6" d="m151.11094,532.69617a2.66449,2.66449 0 1 0 0,5.329l125.605,0a2.665,2.665 0 0 0 0.2041,-5.32611q-0.0585,-0.00219 -0.11712,-0.00189l-125.692,0l0.00002,-0.001z" data-name="Path 40-2" id="a788f10e-f95b-4590-bad9-be702445c232"/>
  <path fill="#e6e6e6" d="m151.11094,548.68315a2.66449,2.66449 0 0 0 0,5.329l125.605,0a2.665,2.665 0 0 0 0.2041,-5.32611q-0.0585,-0.0022 -0.11712,-0.00189l-125.692,0l0.00002,-0.001z" data-name="Path 41-2" id="f15a5014-9b42-4c0b-a546-80766b911601"/>
  <g data-name="Group 59" id="bf60e786-3805-43a5-8cdd-bbea060079bf">
   <circle fill="#a9a5d8" r="15.986" cy="372.80318" cx="113.18795" data-name="Ellipse 5" id="a323e3dd-8f2c-40f7-a0c1-7a235f78e8b7"/>
   <path fill="#e6e6e6" d="m105.53495,369.81716c-0.184,0 -0.333,1.193 -0.333,2.664s0.149,2.665 0.333,2.665l15.719,0c0.184,0.024 0.336,-1.149 0.339,-2.62a5.94306,5.94306 0 0 0 -0.328,-2.708l-15.73,0l0,-0.001z" data-name="Path 40-3" id="b21d221e-9b86-4bff-9dca-a61a27263db1"/>
  </g>
  <g data-name="Group 60" id="b51141dd-8175-4f5a-b697-41b89601b37f">
   <circle fill="#a9a5d8" r="15.986" cy="458.09618" cx="113.18795" data-name="Ellipse 5-2" id="e363222e-d569-47a6-8bf5-edbaac636a07"/>
   <path fill="#e6e6e6" d="m105.53495,455.11016c-0.184,0 -0.333,1.193 -0.333,2.664s0.149,2.665 0.333,2.665l15.719,0c0.184,0.024 0.336,-1.149 0.339,-2.62a5.94306,5.94306 0 0 0 -0.328,-2.708l-15.73,0l0,-0.001z" data-name="Path 40-4" id="bf4b9d9b-b2cd-48cd-bc0b-2e6b007ef33d"/>
  </g>
  <g data-name="Group 61" id="b35aa588-fd9e-4429-8570-fee6b5da93cc">
   <circle fill="#a9a5d8" r="15.986" cy="543.35417" cx="113.18795" data-name="Ellipse 5-3" id="b896a996-d737-41ee-9642-d5eaf8a9fd6b"/>
   <path fill="#e6e6e6" d="m105.53495,540.36815c-0.184,0 -0.333,1.193 -0.333,2.664s0.149,2.665 0.333,2.665l15.719,0c0.184,0.024 0.336,-1.149 0.339,-2.62a5.9431,5.9431 0 0 0 -0.328,-2.708l-15.73,0l0,-0.001z" data-name="Path 40-5" id="f0c90521-3626-484d-9767-39f7327e6a31"/>
  </g>
  <path id="svg_1" fill="#e6e6e6" d="m239.4593,258.48662a4.48656,4.48656 0 0 1 -4.01245,-2.4497a52.87438,52.87438 0 0 0 -31.37232,-26.41114a59.99908,59.99908 0 0 0 -8.408,-1.9038l-0.57959,-0.08789l29.91972,-93.5464l0.50586,0.01758c58.12769,15.79492 91.385,62.38134 100.19336,76.2832a4.49382,4.49382 0 0 1 -1.79663,6.42334l-82.43066,41.19728a4.50685,4.50685 0 0 1 -2.01929,0.47753z"/>
  <path fill="#feb8b8" d="m418.89595,457.81116a9.27592,9.27592 0 0 1 12.711,-6.383l22.283,-24.293l4.164,16.616l-21.8,20.521a9.326,9.326 0 0 1 -17.359,-6.462l0.001,0.001z" data-name="Path 2881" id="e0f3bbc9-2b9f-408e-80ac-e1d5d48fdbc4"/>
  <path fill="#feb8b8" d="m466.75395,700.14918l-13.613,0l-6.478,-52.517l20.1,0l-0.009,52.517z" data-name="Path 2882" id="b7278a0b-1b02-42c5-a26a-5568eba21726"/>
  <path fill="#2f2e41" d="m470.22697,695.70319l-26.815,0a17.089,17.089 0 0 0 -17.088,17.087l0,0.556l43.9,0l0.003,-17.643z" data-name="Path 2883" id="ae5e3f59-c07c-4936-a848-b4ed4a22f493"/>
  <path fill="#feb8b8" d="m544.94294,686.66115l-12.729,4.832l-24.693,-46.8l18.787,-7.13l18.635,49.098z" data-name="Path 2884" id="e2dcac65-80ca-45a3-9c58-68329f82aa19"/>
  <path fill="#2f2e41" d="m546.61396,681.27216l-25.069,9.515l0,0a17.089,17.089 0 0 0 -9.911,22.039l0.2,0.519l41.045,-15.578l-6.265,-16.495z" data-name="Path 2885" id="e33efd2e-5dad-4e18-8ce5-ea4b13e613d2"/>
  <path fill="#2f2e41" d="m500.12394,525.46515l11.283,60.71405s30.625,85.428 28.476,87.577s-31.7,9.671 -30.088,4.836s-35.461,-77.369 -35.461,-77.369l25.79,-75.75805z" data-name="Path 2886" id="aea1be6b-88fd-4404-a4b2-fdb70dea932e"/>
  <path fill="#e4e4e4" d="m454.36796,415.13516s-22.777,29.774 -19.792,31.4s14.547,10.236 14.547,10.236l11.764,-32.284l-6.519,-9.352z" data-name="Path 2887" id="a45d4c0e-5c31-49a4-b00c-14ea50dd8cbe"/>
  <path fill="#2f2e41" d="m448.00694,445.18719s-3.761,27.939 -2.149,33.849s0.537,173.543 -0.537,176.229s-4.3,11.82 -2.686,16.118s23.64,15.044 26.864,11.283s26.866,-140.768 26.866,-140.768s33.312,-82.742 25.79,-90.8s-74.148,-5.911 -74.148,-5.911z" data-name="Path 2888" id="ababf4ae-7dbc-4717-bb50-ecd0b5fac405"/>
  <circle fill="#feb8b8" r="26.32701" cy="239.30065" cx="496.34454" data-name="Ellipse 542" id="a4a0a325-f198-46ef-8204-e1264a7da486"/>
  <path fill="#e4e4e4" d="m468.83494,298.80118a18.66405,18.66405 0 0 1 6,-11.04l4.8,-14.675l28.209,0l7.861,12.335c8.5,3.661 14.8,9.467 15.039,16.311c1.3,4.545 -4.3,148.828 -5.91,154.2c-0.473,1.564 -6.9,2.4 -15.936,2.772c-8.285,0.338 -18.756,0.29 -28.809,0.059c-16.645,-0.387 -32.162,-1.279 -34.773,-1.757c-5.90501,-1.07301 22.93401,-154.81502 23.519,-158.205z" data-name="Path 2890" id="f1bcc5ff-8c37-42ba-ac71-fb7b653723a6"/>
  <path fill="#feb8b8" d="m493.77494,490.13116a9.276,9.276 0 0 0 1.826,-14.106l15.569,-29.056l-17.059,1.558l-12.168,27.352a9.326,9.326 0 0 0 11.833,14.251l-0.001,0.001z" data-name="Path 2891" id="f2ae932d-f3ee-421e-b804-f39bdd3d1485"/>
  <path fill="#e4e4e4" d="m496.36296,282.92816s-24.715,10.208 -15.581,36s19.342,56.415 19.342,56.415s-12.895,69.31 -12.895,72s-8.059,17.193 -4.836,19.88s24.715,8.059 25.252,5.373a181.71945,181.71945 0 0 1 5.91,-18.268c1.075,-2.149 26.327,-69.31 23.1,-75.22c-2.372,-4.349 -4.454,-44.2 -5.388,-64.939a34.107,34.107 0 0 0 -17.781,-28.715c-5.00399,-2.66198 -10.83599,-4.09799 -17.123,-2.526z" data-name="Path 2893" id="a13bc27c-3d22-450d-9b6a-4857ac9e22b6"/>
  <path fill="#2f2e41" d="m506.47792,251.06717c-2,-0.922 -4.317,-1.113 -6.479,-1.686c-7.734,-2.052 -12.916,-9.689 -11.261,-16.6a7.47905,7.47905 0 0 0 0.406,-2.736c-0.289,-2.047 -2.687,-3.368 -4.986,-3.837s-4.746,-0.4 -6.943,-1.155a9.39,9.39 0 0 1 -6.136,-7.366a13.67394,13.67394 0 0 1 2.327,-9.171l0.831,2.088a7.77124,7.77124 0 0 0 2.714,-3.545a5.5,5.5 0 0 1 4.26,2.992c1.333,0.687 1.525,-2.133 3,-2.549a2.945,2.945 0 0 1 1.838,0.4c2.967,1.209 6.414,0.175 9.6,-0.495a41.22185,41.22185 0 0 1 16.771,-0.017c3.663,0.763 7.29,2.093 9.912,4.455a20.35,20.35 0 0 1 4.636,6.96c2.812,6.182 4.669,12.871 3.741,19.473a26.05108,26.05108 0 0 1 -7.436,14.6c-2.123,2.137 -9.05,9.591 -12.848,8.321c-4.778,-1.59999 1.67604,-7.53498 -3.947,-10.132z" data-name="Path 2800" id="a3aad1c3-1778-4515-92de-8de9e018032c"/>
  <circle id="svg_2" fill="#3f3d56" r="8" cy="268.27764" cx="189.25154"/>
  <path id="svg_3" fill="#a9a5d8" d="m135.56404,258.36993a4.492,4.492 0 0 1 -2.1001,-0.52442l-81.95288,-43.23437a4.5,4.5 0 0 1 -1.74121,-6.32471a181.66635,181.66635 0 0 1 40.991,-45.9751c28.30152,-22.43066 60.4939,-33.68408 95.678,-33.49512a151.88378,151.88378 0 0 1 39.064,5.28858l0.50464,0.13672l-29.927,93.541l-0.42114,-0.06347a66.68158,66.68158 0 0 0 -8.13867,-0.72168c-30.45068,-0.85938 -43.64649,19.876 -47.90772,28.82959a4.41453,4.41453 0 0 1 -2.62011,2.31005a4.52734,4.52734 0 0 1 -1.42881,0.23293z"/>
  <path id="svg_4" fill="#3f3d56" d="m225.38141,134.58769l-21.15967,94.56a60.38421,60.38421 0 0 0 -8.48,-1.92l29.62988,-92.64l0.00979,0z"/>
 </g>
</svg>